<?xml version="1.0" encoding="UTF-8"?>
<svg width="40" height="40" viewBox="0 0 40 40" fill="none" xmlns="http://www.w3.org/2000/svg">
  <!-- Gradient definitions -->
  <defs>
    <linearGradient id="gradient1" x1="0%" y1="0%" x2="100%" y2="100%">
      <stop offset="0%" style="stop-color:#3B82F6"/>
      <stop offset="100%" style="stop-color:#8B5CF6"/>
    </linearGradient>
    <linearGradient id="gradient2" x1="0%" y1="0%" x2="100%" y2="100%">
      <stop offset="0%" style="stop-color:#60A5FA"/>
      <stop offset="100%" style="stop-color:#A78BFA"/>
    </linearGradient>
  </defs>
  
  <!-- Main hexagon -->
  <path d="M20 4L34 12V28L20 36L6 28V12L20 4Z" 
        fill="url(#gradient1)" 
        stroke="white" 
        stroke-width="1.5"/>
  
  <!-- Inner connecting lines representing tracking/chain -->
  <path d="M13 16L20 20L27 16M20 20V28" 
        stroke="white" 
        stroke-width="1.5"
        stroke-linecap="round"/>
  
  <!-- Small hexagons at connection points -->
  <path d="M13 16L15.5 14.5L18 16L15.5 17.5L13 16Z" fill="url(#gradient2)"/>
  <path d="M22 16L24.5 14.5L27 16L24.5 17.5L22 16Z" fill="url(#gradient2)"/>
  <path d="M18 28L20.5 26.5L23 28L20.5 29.5L18 28Z" fill="url(#gradient2)"/>
  
  <!-- Letter N in the center -->
  <path d="M18.5 18L21.5 22" stroke="white" stroke-width="1.5" stroke-linecap="round"/>
</svg>
